Coordinates
version=1
nRows=6
nColumns=36
inDegrees=yes

Units are S.I. units (second, meters, Newtons, ...)
If the header above contains a line with 'inDegrees', this indicates whether rotational values are in degrees (yes) or radians (no).

endheader
time	pelvis_tilt	pelvis_list	pelvis_rotation	pelvis_tx	pelvis_ty	pelvis_tz	hip_flexion_r	hip_adduction_r	hip_rotation_r	knee_angle_r	knee_angle_r_beta	ankle_angle_r	subtalar_angle_r	mtp_angle_r	hip_flexion_l	hip_adduction_l	hip_rotation_l	knee_angle_l	knee_angle_l_beta	ankle_angle_l	subtalar_angle_l	mtp_angle_l	lumbar_extension	lumbar_bending	lumbar_rotation	arm_flex_r	arm_add_r	arm_rot_r	elbow_flex_r	pro_sup_r	arm_flex_l	arm_add_l	arm_rot_l	elbow_flex_l	pro_sup_l
      4.68333330	     -4.52758491	     -1.33971690	     -8.37145434	      0.47221185	      0.88962198	     -0.11468144	     19.49621205	     -6.70523747	    -11.69598883	     25.88148391	      0.45171711	     12.71903628	     -2.38455392	     -7.49999987	     18.09006038	    -11.39919153	     -6.68238531	     20.18866385	      0.35235866	      8.58422740	     -0.14956692	     -7.49999987	    -20.17717965	      7.40158325	      5.53574265	     73.49385877	      7.80832868	     62.28685315	    118.99779878	     88.65779065	     61.77886932	     17.50800164	     53.12906991	    120.27820779	     94.86069533
      4.70000000	     -4.21403476	     -1.35805681	     -8.26871281	      0.47828361	      0.89026363	     -0.10970507	     18.08159317	     -6.47736871	    -11.67521182	     24.13438513	      0.42122448	     12.40270157	     -2.07528922	     -7.49999987	     16.62824907	    -11.14031523	     -6.42506160	     18.25757282	      0.31865476	      7.70306983	     -0.32338748	     -7.49999987	    -19.38555772	      7.27032143	      5.62794095	     72.75667704	      7.66218436	     62.48256403	    119.02293989	     88.99624759	     60.18327532	     17.20982442	     53.08595479	    119.90009970	     95.10298199
      4.71666670	     -4.12339448	     -1.35901554	     -8.13610841	      0.47796654	      0.89019221	     -0.11020693	     16.97677561	     -6.24372121	    -11.61101164	     22.48518180	      0.39244046	     12.19449733	     -1.76845330	     -7.49999987	     15.59518517	    -10.95483291	     -6.18523074	     16.62466303	      0.29015511	      6.94201772	     -0.36971663	     -7.49999987	    -18.64259847	      7.22354855	      5.29263792	     72.93651004	      7.77060990	     62.27592421	    118.88746519	     89.83941426	     60.84032927	     16.60266458	     53.20980599	    119.50755174	     95.83102718
      4.73333330	     -4.26901104	     -1.30120187	     -8.08301459	      0.48477310	      0.88752228	     -0.11336666	     16.34026771	     -6.15824625	    -11.49438671	     21.32523444	      0.37219555	     12.08537492	     -1.60859617	     -7.49999987	     14.78573528	    -10.73043343	     -6.01185605	     15.20723628	      0.26541634	      6.59877506	     -0.29476601	     -7.49999987	    -17.32504277	      7.27035671	      4.73900619	     72.80142998	      7.66425150	     61.92469558	    118.82332778	     89.91516472	     61.19183009	     16.04744708	     53.21624505	    119.09268774	     95.83243596
      4.75000000	     -4.25683088	     -1.21084227	     -7.91246814	      0.48459285	      0.88790670	     -0.11369731	     15.44172638	     -6.14166505	    -11.49721926	     19.96332430	      0.34842574	     12.06572384	     -1.39364610	     -7.49999987	     14.01183237	    -10.42260415	     -5.56233981	     14.00265271	      0.24439239	      6.39445790	     -0.51600818	     -7.49999987	    -16.38494486	      7.29788575	      4.63030766	     73.30709248	      7.93432601	     61.43980084	    119.45999916	     89.66482656	     61.20382324	     16.67896546	     53.49758307	    118.52480796	     95.77554941
      4.76666670	     -4.57884322	     -1.11577086	     -7.77563249	      0.48512899	      0.88854980	     -0.11303882	     15.03567451	     -6.09146988	    -11.48969020	     18.78043154	      0.32778037	     12.09606295	     -1.16654195	     -7.49999987	     13.78418779	    -10.22304232	     -5.27148815	     13.11988640	      0.22898522	      6.41589927	     -0.51372313	     -7.49999987	    -15.29688555	      7.27118143	      4.86920746	     73.69253102	      7.97207673	     60.89151659	    119.81381772	     88.51768513	     61.11848623	     17.65337420	     53.24241291	    118.26099338	     94.38911374
